<svg viewBox="0 0 512 512" xml:space="preserve" xmlns="http://www.w3.org/2000/svg"><path d="M441.107 404.268s-31.477-6.907-39.452-9.363c-7.844-2.421-14.092-7.856-17.896-15.487 28.172-13.647 43.119-46.08 45.558-78.738v-2.445h9.826c5.032 0 9.114-4.082 9.114-9.114 0-5.032-4.082-9.114-9.114-9.114h-6.147l-.718-7.215c-2.284-23.093-18.151-42.294-40.413-48.892l-10.443-3.097v-2.753c0-5.032-4.082-9.114-9.114-9.114h-38.04c-5.026 0-9.102 4.07-9.114 9.09l-.006 2.729-10.728 3.18c-22.168 6.586-38.022 25.692-40.384 48.679l-.759 7.393h-5.993a9.112 9.112 0 0 0-9.114 9.114 9.112 9.112 0 0 0 9.114 9.114h10.146l.012 3.133c2.409 32.065 17.284 64.302 45.332 77.972-3.602 7.381-9.933 13.072-18.002 15.564-7.975 2.456-39.452 9.363-39.452 9.363-.006 0-.024.006-.03.006l-.024.006c-4.699 1.038-44.288 10.769-48.934 43.279-2.658 18.572-5.761 36.206-5.767 36.254a9.134 9.134 0 0 0 1.994 7.441 9.113 9.113 0 0 0 6.984 3.252h267.341a9.092 9.092 0 0 0 6.978-3.252 9.12 9.12 0 0 0 2-7.441c-.012-.047-3.115-17.682-5.773-36.254-4.653-32.597-44.455-42.293-48.982-43.29zm-1.531 18.442v53.568H403.37l14.371-58.528c5.115 1.168 20.417 4.55 21.835 4.96zm-52.891-181.341c15.125 4.486 25.9 17.528 27.454 33.228l.534 5.411h-33.251v-40.2l5.263 1.561zm-23.491-14.204v52.844h-19.943l.113-52.844h19.83zm-71.024 47.313c1.602-15.617 12.377-28.6 27.437-33.073l5.5-1.632-.083 40.235H291.6l.57-5.53zm3.477 26.203v-2.445h115.46l.006 1.756c-2.545 33.833-21.39 67.963-57.745 67.963-36.36 0-55.205-34.129-57.721-67.274zm57.721 85.502c4.456 0 8.645-.481 12.71-1.181a47.87 47.87 0 0 0 8.954 13.926l-21.491 17.456-21.972-17.747c3.572-3.958 6.503-8.568 8.699-13.701 4.176.743 8.496 1.247 13.1 1.247zm-64.628 31.554 14.905 58.54h-36.8V422.71c1.425-.41 16.769-3.798 21.895-4.973zm-54.363 32.409c1.234-8.651 7.423-14.917 14.24-19.331v45.463H230.33c1.14-6.907 2.653-16.389 4.047-26.132zm88.072 26.131L306.446 413.4c1.341-.374 7.981-2.593 10.01-3.542l31.376 25.336a9.07 9.07 0 0 0 5.726 2.029c2.035 0 4.07-.676 5.744-2.041l30.979-25.158c1.928.884 8.396 3.014 9.755 3.388l-15.433 62.866h-62.154zm149.601-26.131c1.388 9.743 2.907 19.225 4.047 26.131h-18.293V430.82c6.824 4.409 13.012 10.681 14.246 19.326zM167.898 485.391c0-5.032-4.082-9.114-9.114-9.114H40.422a6.2 6.2 0 0 1-6.195-6.195v-313.74c0-1.317.267-3.145 1.531-4.415L150.833 37.304c2.385-2.397 5.744-2.35 8.034-.047l112.405 113.639c.089.427-.083 55.004-.083 55.004 0 5.032 4.082 9.114 9.114 9.114 5.032 0 9.114-4.082 9.114-9.114l.059-51.527c.166-3.809.439-10.194-4.676-15.297L171.802 24.416c-9.233-9.233-24.63-9.221-33.845-.012L22.889 139.028C18.445 143.466 16 149.613 16 156.342v313.741c0 13.469 10.959 24.422 24.422 24.422h118.362c5.032 0 9.114-4.082 9.114-9.114z" fill="#0f3d3e" class="fill-000000"></path><path d="M207.392 330.455h-33.495c-5.032 0-9.114 4.082-9.114 9.114s4.082 9.114 9.114 9.114h33.495c5.032 0 9.114-4.082 9.114-9.114s-4.083-9.114-9.114-9.114zM122.329 330.455H88.834c-5.032 0-9.114 4.082-9.114 9.114s4.082 9.114 9.114 9.114h33.495c5.032 0 9.114-4.082 9.114-9.114s-4.083-9.114-9.114-9.114zM207.392 388.568h-33.495c-5.032 0-9.114 4.082-9.114 9.114 0 5.032 4.082 9.114 9.114 9.114h33.495c5.032 0 9.114-4.082 9.114-9.114 0-5.032-4.083-9.114-9.114-9.114zM122.329 388.568H88.834c-5.032 0-9.114 4.082-9.114 9.114 0 5.032 4.082 9.114 9.114 9.114h33.495c5.032 0 9.114-4.082 9.114-9.114 0-5.032-4.083-9.114-9.114-9.114zM207.392 269.696h-33.495c-5.032 0-9.114 4.082-9.114 9.114s4.082 9.114 9.114 9.114h33.495c5.032 0 9.114-4.082 9.114-9.114s-4.083-9.114-9.114-9.114zM122.329 269.696H88.834c-5.032 0-9.114 4.082-9.114 9.114s4.082 9.114 9.114 9.114h33.495c5.032 0 9.114-4.082 9.114-9.114s-4.083-9.114-9.114-9.114zM207.392 207.62h-33.495c-5.032 0-9.114 4.082-9.114 9.114s4.082 9.114 9.114 9.114h33.495c5.032 0 9.114-4.082 9.114-9.114s-4.083-9.114-9.114-9.114zM122.329 207.62H88.834c-5.032 0-9.114 4.082-9.114 9.114s4.082 9.114 9.114 9.114h33.495c5.032 0 9.114-4.082 9.114-9.114s-4.083-9.114-9.114-9.114z" fill="#0f3d3e" class="fill-000000"></path></svg>