<svg viewBox="0 0 22.176 22.176" xmlns="http://www.w3.org/2000/svg"><g data-name="Layer 2"><path d="M9.193 13.116a.337.337 0 0 1-.479-.474c.306-.304.793.168.479.474Zm1.254-.573a.336.336 0 0 0 0 .672.336.336 0 0 0 0-.672Zm1.492 0a.336.336 0 0 0 0 .672.336.336 0 0 0 0-.672Zm10.237-9.4v18.7a.337.337 0 0 1-.336.336h-7.062a.336.336 0 0 1 0-.672H21.5V3.478h-2.354v12.538a.336.336 0 0 1-.6.21L8.349 3.478H3.572V16.04a.336.336 0 0 1-.336.336 2.564 2.564 0 0 0 0 5.128h1.685a.336.336 0 0 1 0 .672H3.236A3.24 3.24 0 0 1 0 18.94V3.236A3.24 3.24 0 0 1 3.236 0a.336.336 0 0 1 .336.336v2.47h4.239L6 .546A.338.338 0 0 1 6.266 0H18.81a.337.337 0 0 1 .336.336v2.47h2.694a.336.336 0 0 1 .336.336ZM2.9.694A2.567 2.567 0 0 0 .672 3.236v13.732A3.235 3.235 0 0 1 2.9 15.722ZM18.474.672H6.965l11.509 14.386Zm-6.49 2.134h4.48a.335.335 0 0 1 .336.336v5.6a.338.338 0 0 1-.6.21l-4.48-5.6a.338.338 0 0 1 .264-.546Zm.7.672 3.445 4.306V3.478Zm1.086 8.506v8.96a1.233 1.233 0 0 1-1.232 1.232H7.162a1.234 1.234 0 0 1-1.232-1.232v-8.96a1.235 1.235 0 0 1 1.232-1.233h5.375a1.234 1.234 0 0 1 1.232 1.233Zm-4.256 6.608H6.6c.054 3.481-.58 2.861 2.912 2.912Zm0-3.584H6.6v2.913h2.914Zm3.586 3.584h-2.914V21.5h2.351a.561.561 0 0 0 .561-.56Zm0-3.584h-2.914v2.913H13.1Zm0-3.024a.561.561 0 0 0-.561-.56H7.162a.56.56 0 0 0-.56.56v2.352h6.5Z" data-name="Layer 1" fill="#0f3d3e" class="fill-000000"></path></g></svg>