<svg viewBox="0 0 512 512" xml:space="preserve" xmlns="http://www.w3.org/2000/svg" enable-background="new 0 0 512 512"><path d="M121.1 405.34c-3.87 0-7-3.13-7-7 0-23.88-19.42-43.3-43.3-43.3s-43.3 19.42-43.3 43.3c0 3.87-3.13 7-7 7s-7-3.13-7-7V113.66c0-31.6 25.7-57.3 57.3-57.3s57.3 25.7 57.3 57.3v284.68c0 3.87-3.13 7-7 7zm-50.3-64.3c17.27 0 32.79 7.68 43.3 19.81V113.66c0-23.88-19.42-43.3-43.3-43.3s-43.3 19.42-43.3 43.3v247.19c10.51-12.13 26.03-19.81 43.3-19.81z" fill="#0f3d3e" class="fill-1b3954"></path><path d="M491.5 455.64c-3.87 0-7-3.13-7-7V120.66H128.1v277.68c0 3.87-3.13 7-7 7s-7-3.13-7-7c0-23.88-19.42-43.3-43.3-43.3s-43.3 19.42-43.3 43.3c0 23.88 19.42 43.3 43.3 43.3h380.67c3.87 0 7 3.13 7 7s-3.13 7-7 7H70.8c-31.59 0-57.3-25.7-57.3-57.3 0-31.6 25.71-57.3 57.3-57.3 17.27 0 32.79 7.68 43.3 19.81V113.66c0-3.87 3.13-7 7-7h370.4c3.87 0 7 3.13 7 7v334.98c0 3.87-3.13 7-7 7z" fill="#0f3d3e" class="fill-1b3954"></path><path d="M227.3 235.68h-68.43c-3.87 0-7-3.13-7-7v-68.43c0-3.87 3.13-7 7-7h68.43c3.87 0 7 3.13 7 7v68.43c0 3.87-3.14 7-7 7zm-61.43-14h54.43v-54.43h-54.43v54.43z" fill="#0f3d3e" class="fill-1b3954"></path><path d="M286.53 405.73H234.7c-3.87 0-7-3.13-7-7s3.13-7 7-7h44.83V278.07H165.87v113.66h9.34c3.87 0 7 3.13 7 7s-3.13 7-7 7h-16.34c-3.87 0-7-3.13-7-7V271.07c0-3.87 3.13-7 7-7h127.66c3.87 0 7 3.13 7 7v127.66c0 3.86-3.13 7-7 7z" fill="#336e70" class="fill-16ade1"></path><path d="M201.64 405.73c-1.85 0-3.65-.75-4.95-2.05-.32-.33-.62-.68-.87-1.07-.25-.38-.47-.78-.65-1.21-.17-.42-.3-.86-.39-1.31-.1-.45-.14-.91-.14-1.36 0-.46.04-.92.14-1.37.09-.45.22-.89.39-1.31.18-.42.4-.83.65-1.21s.55-.74.87-1.06c1.3-1.31 3.1-2.05 4.95-2.05 1.84 0 3.64.74 4.95 2.05.32.32.61.68.87 1.06.25.38.47.79.64 1.21.18.42.31.86.4 1.31s.14.91.14 1.37c0 .45-.05.91-.14 1.36s-.22.89-.4 1.31c-.17.43-.39.83-.64 1.21-.26.39-.55.74-.87 1.07a7.079 7.079 0 0 1-4.95 2.05zM436.66 235.68H256c-3.87 0-7-3.13-7-7v-68.43c0-3.87 3.13-7 7-7h88.4c3.87 0 7 3.13 7 7s-3.13 7-7 7H263v54.43h166.66v-54.43h-32.32c-3.87 0-7-3.13-7-7s3.13-7 7-7h39.32c3.87 0 7 3.13 7 7v68.43c0 3.87-3.13 7-7 7z" fill="#336e70" class="fill-16ade1"></path><path d="M369.26 167.26c-.46 0-.92-.05-1.37-.14-.45-.09-.89-.22-1.31-.4-.42-.17-.83-.39-1.21-.64-.38-.26-.74-.55-1.06-.87-.33-.33-.62-.68-.87-1.07-.26-.38-.47-.78-.65-1.2-.17-.43-.31-.87-.4-1.31-.09-.46-.14-.92-.14-1.37 0-.46.05-.92.14-1.37.09-.45.23-.89.4-1.31.18-.42.39-.83.65-1.21.25-.38.54-.74.87-1.06.32-.32.68-.62 1.06-.87s.79-.47 1.21-.65c.42-.17.86-.3 1.31-.39.9-.19 1.83-.19 2.73 0 .45.09.89.22 1.31.39.42.18.83.4 1.21.65s.74.55 1.06.87c.33.32.62.68.88 1.06.25.38.46.79.64 1.21.17.42.31.86.4 1.31.09.45.13.91.13 1.37 0 .45-.04.91-.13 1.37-.09.44-.23.88-.4 1.31-.18.42-.39.82-.64 1.2-.26.39-.55.74-.88 1.07-.32.32-.68.61-1.06.87-.38.25-.79.47-1.21.64-.42.18-.86.31-1.31.4-.45.09-.91.14-1.36.14z" fill="#336e70" class="fill-16ade1"></path><path d="M368.23 409.04h-38.3c-3.87 0-7-3.13-7-7V271.07c0-3.87 3.13-7 7-7h38.3c3.87 0 7 3.13 7 7v130.98c0 3.86-3.13 6.99-7 6.99zm-31.29-14h24.3V278.07h-24.3v116.97zM436.66 409.04h-38.3c-3.87 0-7-3.13-7-7V271.07c0-3.87 3.13-7 7-7h38.3c3.87 0 7 3.13 7 7v130.98c0 3.86-3.13 6.99-7 6.99zm-31.3-14h24.3V278.07h-24.3v116.97zM67.81 314.87c-3.87 0-7-3.13-7-7V121.32c0-3.87 3.13-7 7-7s7 3.13 7 7v186.55c0 3.87-3.14 7-7 7zM67.81 106.24c-1.85 0-3.65-.75-4.95-2.05a7.079 7.079 0 0 1-2.05-4.95c0-1.85.75-3.65 2.05-4.95 1.62-1.63 4.04-2.37 6.32-1.92.44.09.88.23 1.31.4.42.18.82.39 1.2.65.39.25.75.54 1.07.87 1.3 1.3 2.05 3.1 2.05 4.95 0 1.84-.75 3.64-2.05 4.95-.32.32-.68.61-1.07.87a7.043 7.043 0 0 1-3.88 1.18z" fill="#0f3d3e" class="fill-1b3954"></path></svg>